<svg width="56" height="68" viewBox="0 0 56 68" fill="none" xmlns="http://www.w3.org/2000/svg">
<path d="M41.6184 10.9678H2.57056C1.15298 10.9678 0 12.1208 0 13.5383V65.4293C0 66.8469 1.15298 67.9999 2.57056 67.9999H41.6184C43.0346 67.9999 44.1876 66.8469 44.1876 65.4293V13.5383C44.1876 12.1208 43.0346 10.9678 41.6184 10.9678ZM32.9031 47.1612H12.0645C10.8526 47.1612 9.87094 46.1796 9.87094 44.9677C9.87094 43.7558 10.8526 42.7741 12.0645 42.7741H32.9031C34.1151 42.7741 35.0967 43.7558 35.0967 44.9677C35.0967 46.1796 34.1151 47.1612 32.9031 47.1612ZM32.9031 38.3871H12.0645C10.8526 38.3871 9.87094 37.4055 9.87094 36.1935C9.87094 34.9816 10.8526 34 12.0645 34H32.9031C34.1151 34 35.0967 34.9816 35.0967 36.1935C35.0967 37.4055 34.1151 38.3871 32.9031 38.3871ZM32.9031 29.6129H12.0645C10.8526 29.6129 9.87094 28.6313 9.87094 27.4193C9.87094 26.2074 10.8526 25.2258 12.0645 25.2258H32.9031C34.1151 25.2258 35.0967 26.2074 35.0967 27.4193C35.0967 28.6313 34.1151 29.6129 32.9031 29.6129Z" fill="url(#paint0_linear_1628_13623)"/>
<path d="M55.9354 6.58063V54.8386C55.9354 58.1508 53.2701 61.4192 48.5747 61.4192V13.5383C48.5747 9.70094 45.4543 6.58063 41.6184 6.58063H7.36072C7.36072 2.95169 10.4879 0 14.3307 0H48.9654C52.8082 0 55.9354 2.95169 55.9354 6.58063Z" fill="url(#paint1_linear_1628_13623)"/>
<defs>
<linearGradient id="paint0_linear_1628_13623" x1="22.0938" y1="10.9678" x2="22.0938" y2="67.9999" gradientUnits="userSpaceOnUse">
<stop stop-color="#1A964B"/>
<stop offset="1" stop-color="#4AAB3D"/>
</linearGradient>
<linearGradient id="paint1_linear_1628_13623" x1="31.648" y1="0" x2="31.648" y2="61.4192" gradientUnits="userSpaceOnUse">
<stop stop-color="#1A964B"/>
<stop offset="1" stop-color="#4AAB3D"/>
</linearGradient>
</defs>
</svg>
