<svg width="68" height="68" viewBox="0 0 68 68" fill="none" xmlns="http://www.w3.org/2000/svg">
<path d="M58.2832 13.4747C59.8152 13.4747 61.0303 13.9248 62.2866 14.7553L58.1413 17.1487C56.7648 17.9436 56.2928 19.7173 57.0849 21.0879C57.8794 22.4627 59.6493 22.9371 61.0244 22.1431L65.1697 19.7496C65.2446 20.986 65.1299 22.0063 64.6263 23.1633C63.3288 26.1446 60.0894 27.8286 56.9003 27.1816C56.6976 27.1405 56.4876 27.2035 56.3413 27.3498L46.1327 37.5594C45.1145 38.5777 43.4575 38.5786 42.439 37.5602L41.1193 36.2404C40.1027 35.2235 40.1007 33.5622 41.1179 32.545L51.3258 22.3369C51.4721 22.1906 51.5345 21.9805 51.4932 21.7778C50.6172 17.4673 53.9403 13.4747 58.2832 13.4747ZM25.5656 15.0434C25.5514 14.2911 25.5917 13.5363 25.6846 12.7895C25.7716 12.0898 26.3493 11.5709 27.0542 11.5587C30.6658 11.4957 32.8468 7.53168 30.9856 4.44888C30.6223 3.84704 30.7542 3.08267 31.2972 2.63674C32.4634 1.6788 33.7631 0.892973 35.1539 0.307499C35.8034 0.0341343 36.541 0.275548 36.9035 0.879853C38.7578 3.97099 43.2854 3.89351 45.0293 0.727966C45.3674 0.113936 46.1002 -0.156495 46.7562 0.0915552C48.1675 0.625011 49.4958 1.36144 50.6967 2.27477C51.2539 2.69848 51.4136 3.46193 51.0744 4.0741C49.3261 7.22791 51.6649 11.1044 55.2689 11.0334C55.989 11.0192 56.6075 11.5541 56.6891 12.2545L56.7055 12.3936C55.7822 12.5936 55.0226 12.8644 54.1993 13.3398C51.2554 15.04 49.7126 18.3159 50.2241 21.6925L44.5062 27.4109C43.595 26.7064 42.6059 26.3243 41.4411 26.3452C39.7692 26.3755 38.2291 27.3086 37.4232 28.7733C37.0853 29.3873 36.3519 29.6584 35.6962 29.4106C34.284 28.877 32.9575 28.141 31.7556 27.2274C31.198 26.8034 31.0381 26.0401 31.3771 25.4274C33.1241 22.2718 30.7908 18.3957 27.1835 18.4686C26.481 18.4828 25.8812 17.9838 25.7685 17.2896C25.6478 16.5476 25.5798 15.7955 25.5656 15.0434ZM35.0681 14.8656C35.1315 18.2684 37.9322 20.9707 41.3399 20.909C44.7423 20.8474 47.4461 18.0379 47.3833 14.6358C47.3206 11.2416 44.5034 8.53083 41.1107 8.59258C37.7078 8.65447 35.0048 11.4678 35.0681 14.8656ZM61.6322 43.4382L46.1941 52.3523L46.1756 52.4082C45.2663 55.1585 42.346 56.7227 39.5586 55.9755L28.7791 53.0859C27.9929 52.8752 28.3147 51.6821 29.0989 51.8923L39.8784 54.7819C40.9698 55.0744 42.1179 54.9175 43.0958 54.3531C46.3927 52.4505 45.6743 47.5469 42.0758 46.5826L21.4187 41.0471C19.4782 40.527 17.5915 40.7757 15.8519 41.7801L10.4622 44.8921L19.4621 60.481L22.6627 58.633C22.7945 58.5569 22.9486 58.5319 23.0975 58.563L42.7591 62.6662C42.7694 62.6687 42.7804 62.6707 42.7901 62.6738C43.8212 62.9881 45.0737 62.801 46.0147 62.2576L65.8754 50.7891C66.8561 50.2228 67.5542 49.3034 67.8471 48.21C68.8318 44.5348 64.8615 41.5736 61.6322 43.4382ZM0 48.5985L11.2004 68L19.5827 63.1594L8.38213 43.7594L0 48.5985Z" fill="url(#paint0_linear_1628_13618)"/>
<defs>
<linearGradient id="paint0_linear_1628_13618" x1="34" y1="0" x2="34" y2="68" gradientUnits="userSpaceOnUse">
<stop stop-color="#2553F7"/>
<stop offset="1" stop-color="#2781EB"/>
</linearGradient>
</defs>
</svg>
