<svg width="81" height="68" viewBox="0 0 81 68" fill="none" xmlns="http://www.w3.org/2000/svg">
<path d="M56.5845 38.8017C55.4683 37.5212 56.3776 35.5219 58.0763 35.5219H63.1625C63.1957 35.0187 63.2142 34.5115 63.2142 34.0001C63.2142 21.3277 52.9046 11.0181 40.2323 11.0181C34.1425 11.0181 28.5992 13.3997 24.4826 17.2795L17.3106 8.88919C23.5889 3.14589 31.6685 0 40.2323 0C49.314 0 57.8521 3.53671 64.2739 9.95834C70.6955 16.3801 74.2323 24.9182 74.2323 33.9999C74.2323 34.5091 74.2195 35.0163 74.1974 35.5218H78.4815C80.1803 35.5218 81.0898 37.5211 79.9734 38.8016L70.309 49.8872L68.279 52.2156L60.9908 43.8556L56.5845 38.8017Z" fill="url(#paint0_linear_1628_13612)"/>
<path d="M0.491142 32.334L7.69944 24.0656L12.1855 18.9199L18.5905 26.2667L23.8798 32.334C24.9961 33.6144 24.0868 35.6138 22.388 35.6138H17.3078C18.1389 47.536 28.1026 56.9819 40.2322 56.9819C45.527 56.9819 50.4088 55.1811 54.2989 52.161L61.4714 60.5519C55.4628 65.3773 48.0496 68 40.232 68C31.1503 68 22.6122 64.4635 16.1904 58.0417C10.1505 52.0018 6.66374 44.0895 6.2704 35.6139H1.98283C0.284191 35.6138 -0.625111 33.6144 0.491142 32.334Z" fill="url(#paint1_linear_1628_13612)"/>
<defs>
<linearGradient id="paint0_linear_1628_13612" x1="82.6704" y1="52.2156" x2="17.833" y2="52.7859" gradientUnits="userSpaceOnUse">
<stop stop-color="#FFCF55"/>
<stop offset="0.917747" stop-color="#FF6354"/>
</linearGradient>
<linearGradient id="paint1_linear_1628_13612" x1="63.6185" y1="68" x2="0.508768" y2="68.5748" gradientUnits="userSpaceOnUse">
<stop stop-color="#FFCF55"/>
<stop offset="0.917747" stop-color="#FF6354"/>
</linearGradient>
</defs>
</svg>
