<svg width="49" height="61" viewBox="0 0 49 61" fill="none" xmlns="http://www.w3.org/2000/svg">
<path d="M26.8276 39.7704C24.8445 40.576 23.0092 41.0106 21.6748 40.9386C19.9464 40.8422 19.2084 40.0788 19.2058 39.7917C19.2044 39.5873 19.8488 38.947 21.8381 38.8021C22.1501 38.7799 22.4793 38.7657 22.8183 38.7657C24.1775 38.7657 25.6903 38.9896 26.8276 39.7704ZM30.5374 57.3228C23.2656 59.3314 15.5812 57.4788 10.9578 52.5991C7.68605 49.1463 6.5891 44.8252 7.94741 40.744C10.68 32.5328 23.776 27.6043 32.1455 27.6043C32.2356 27.6043 32.3252 27.6047 32.414 27.606C35.5326 27.646 37.6924 28.401 38.0505 29.5773C38.2511 30.2354 37.7767 31.3877 36.7814 32.6586C35.025 34.9014 32.3563 36.9339 29.6419 38.4248C27.921 36.534 25.1605 35.6737 21.63 35.9283C17.6997 36.2141 16.3143 38.124 16.3285 39.8162C16.344 41.6612 18.1306 43.6276 21.515 43.816C23.5634 43.928 26.0116 43.2961 28.4699 42.2189C28.8307 43.6365 28.7189 45.4962 28.1287 47.7136C27.9241 48.4819 28.3803 49.272 29.148 49.4769C29.9148 49.6817 30.7038 49.2249 30.9088 48.4557C31.7111 45.4428 31.7705 42.9157 31.0898 40.908C34.2995 39.1043 37.2664 36.7082 39.0454 34.437C40.7148 32.3053 41.3058 30.3874 40.8031 28.7361C40.4379 27.5372 39.5779 26.5862 38.2821 25.9116C38.3811 15.0849 40.2976 7.60647 42.0229 7.59625H42.0336C42.287 7.59625 42.63 7.65313 43.0502 8.07129C44.452 9.46663 46.1223 14.0473 46.1223 27.9469C46.1223 41.6617 44.9499 53.3385 30.5374 57.3228ZM16.8095 25.3348C16.8078 25.2988 16.8122 25.2633 16.8078 25.2269C16.8015 25.1749 16.7953 25.1198 16.7887 25.0664C16.5819 22.11 16.936 19.7801 17.8364 18.5306C18.2837 17.9102 18.8446 17.5778 19.602 17.4845C20.6582 17.357 21.5173 17.6298 22.2388 18.3239C23.6362 19.6691 24.4518 22.5775 24.3741 25.7592C21.9783 26.3511 19.5253 27.1941 17.1947 28.2793C17.011 27.2465 16.8841 26.2627 16.8095 25.3348ZM29.2039 20.3147C29.7337 19.7375 30.4096 19.4566 31.2718 19.4566C32.6421 19.4566 33.2376 19.9055 33.5668 20.2432C34.354 21.0506 34.7783 22.6166 34.8364 24.8971C34.0993 24.7949 33.3046 24.7354 32.4508 24.7247C32.3536 24.7234 32.2569 24.7229 32.1588 24.7229C30.86 24.7229 29.4444 24.8358 27.9667 25.0509C27.9028 22.961 28.339 21.2581 29.2039 20.3147ZM45.079 6.0276C44.2159 5.16818 43.1625 4.71447 42.0309 4.71447H42.0056C38.2147 4.73714 36.9069 10.4012 36.2524 14.6596C36.0607 15.9092 35.9125 17.1845 35.7971 18.419C35.7408 18.3559 35.6853 18.2906 35.6263 18.2302C34.556 17.1321 33.0907 16.5753 31.2718 16.5753C29.6064 16.5753 28.1584 17.1939 27.0845 18.3653C26.7784 18.6994 26.5152 19.0865 26.2774 19.5015C25.803 18.2515 25.1396 17.1197 24.233 16.2465C22.8858 14.9502 21.1645 14.389 19.251 14.6245C17.709 14.8142 16.4128 15.5812 15.5027 16.8442C15.4991 16.8499 15.496 16.8562 15.492 16.861C13.9154 8.9867 10.9179 -0.521606 5.68784 0.0223101C4.40097 0.157845 3.26364 0.851515 2.39966 2.02733C-1.63491 7.51982 0.258125 23.8524 2.01227 32.6368C2.14938 33.3216 2.74978 33.7958 3.42161 33.7958C3.51525 33.7958 3.61021 33.7864 3.70561 33.7673C4.48439 33.6113 4.98982 32.8523 4.83407 32.072C1.89645 17.3632 2.55187 6.68306 4.71781 3.73507C5.22679 3.04229 5.68695 2.91964 5.98915 2.88809C8.87618 2.58725 12.4328 12.6888 13.934 25.4384C14.0543 27.0173 14.293 28.4957 14.5233 29.6448C14.5242 29.6502 14.5269 29.6551 14.5278 29.6604C10.2043 32.156 6.63658 35.5684 5.21747 39.833C3.5117 44.9563 4.84339 50.3328 8.87041 54.5828C12.802 58.7315 18.6027 61 24.6919 61C26.8826 61 29.1116 60.7058 31.3028 60.1001C47.6466 55.5826 49 42.3131 49 27.9469C49 15.6554 47.754 8.69075 45.079 6.0276Z" fill="#0F1031"/>
</svg>
