<svg width="95" height="37" viewBox="0 0 95 37" fill="none" xmlns="http://www.w3.org/2000/svg">
<path d="M1.51294 5.66699H7.83246C9.12822 5.66699 10.2416 5.86148 11.1726 6.25046C12.1115 6.63945 12.833 7.21514 13.3373 7.97758C13.8416 8.73994 14.0938 9.67737 14.0938 10.7899C14.0938 11.7001 13.9386 12.482 13.6283 13.1355C13.3256 13.7811 12.8951 14.3218 12.3365 14.7575C11.7855 15.1853 11.1377 15.5277 10.3929 15.7844L9.28721 16.3678H3.79402L3.77074 13.6372H7.85577C8.46871 13.6372 8.97692 13.5283 9.38032 13.3105C9.7838 13.0926 10.0864 12.7892 10.2882 12.4003C10.4976 12.0113 10.6024 11.56 10.6024 11.0466C10.6024 10.502 10.5015 10.0314 10.2998 9.63463C10.098 9.23786 9.79157 8.93446 9.38032 8.72435C8.96915 8.51432 8.45317 8.4093 7.83246 8.4093H5.00439V22.6577H1.51294V5.66699ZM10.9864 22.6577L7.12254 15.0843L10.8118 15.0609L14.7223 22.4943V22.6577H10.9864ZM23.6604 5.66699V22.6577H20.1806V5.66699H23.6604ZM28.8743 5.66699V8.4093H15.0481V5.66699H28.8743Z" fill="#7530B5"/>
<path d="M37.6727 5.66699H40.4426L45.0746 18.4567L49.6949 5.66699H52.4764L46.1802 22.6577H43.9573L37.6727 5.66699ZM36.2761 5.66699H38.9879L39.4766 17.4181V22.6577H36.2761V5.66699ZM51.1497 5.66699H53.873V22.6577H50.6726V17.4181L51.1497 5.66699ZM62.5552 22.8911C61.6008 22.8911 60.7435 22.7355 59.9831 22.4243C59.2227 22.1132 58.5749 21.6814 58.0395 21.129C57.5119 20.5689 57.1046 19.9193 56.8175 19.1802C56.5382 18.4334 56.3985 17.6321 56.3985 16.7763V16.3095C56.3985 15.3371 56.5382 14.4541 56.8175 13.6605C57.0968 12.8593 57.4925 12.1708 58.0046 11.5951C58.5167 11.0194 59.1297 10.5759 59.8434 10.2647C60.5573 9.95354 61.3447 9.79798 62.206 9.79798C63.0982 9.79798 63.8858 9.94968 64.5685 10.2531C65.2513 10.5487 65.8216 10.9688 66.2793 11.5134C66.7371 12.058 67.0823 12.7115 67.3151 13.4739C67.5479 14.2285 67.6643 15.0648 67.6643 15.9828V17.2781H57.7951V15.1542H64.6383V14.9209C64.6229 14.4308 64.5297 13.9834 64.3591 13.5789C64.1884 13.1666 63.9246 12.8399 63.5677 12.5986C63.2107 12.3497 62.7491 12.2253 62.1827 12.2253C61.725 12.2253 61.3253 12.3263 60.984 12.5287C60.6504 12.7231 60.371 13.0032 60.146 13.3688C59.9288 13.7267 59.7659 14.1545 59.6572 14.6525C59.5486 15.1504 59.4943 15.7027 59.4943 16.3095V16.7763C59.4943 17.3054 59.5642 17.7954 59.7038 18.2467C59.8512 18.6979 60.0646 19.0907 60.3439 19.4253C60.631 19.752 60.9724 20.0087 61.3681 20.1955C61.7715 20.3744 62.2293 20.4638 62.7413 20.4638C63.3854 20.4638 63.9672 20.3394 64.487 20.0904C65.0146 19.8337 65.4724 19.4564 65.8604 18.9585L67.4083 20.5689C67.1445 20.9579 66.7875 21.3313 66.3376 21.6891C65.8953 22.047 65.3599 22.3388 64.7315 22.5644C64.103 22.7822 63.3776 22.8911 62.5552 22.8911ZM72.7385 12.727V22.6577H69.666V10.0314H72.5523L72.7385 12.727ZM72.2497 15.8894H71.342C71.3497 14.9714 71.4739 14.139 71.7143 13.3922C71.9549 12.6453 72.2924 12.0035 72.7269 11.4667C73.1692 10.9299 73.6929 10.5176 74.298 10.2298C74.9032 9.94189 75.5783 9.79798 76.3231 9.79798C76.9283 9.79798 77.4753 9.88355 77.9641 10.0547C78.4529 10.2258 78.8719 10.4981 79.2213 10.8715C79.5778 11.245 79.8494 11.7351 80.0355 12.3419C80.2294 12.9409 80.3268 13.68 80.3268 14.5591V22.6577H77.2309V14.5358C77.2309 13.9601 77.1455 13.505 76.9748 13.1704C76.8119 12.8359 76.5714 12.5986 76.2533 12.4586C75.9429 12.3185 75.5589 12.2486 75.1011 12.2486C74.6278 12.2486 74.2127 12.3458 73.8558 12.5403C73.5066 12.727 73.2118 12.9876 72.9713 13.3221C72.7385 13.6567 72.5601 14.0418 72.4359 14.4775C72.3118 14.9131 72.2497 15.3837 72.2497 15.8894ZM90.5334 19.6586V10.0314H93.6291V22.6577H90.7194L90.5334 19.6586ZM90.9291 17.0447L91.883 17.0214C91.883 17.8693 91.7904 18.6512 91.6043 19.367C91.4174 20.0826 91.1269 20.705 90.7312 21.2341C90.3434 21.7553 89.8503 22.1637 89.2528 22.4593C88.6554 22.7472 87.9495 22.8911 87.1346 22.8911C86.5143 22.8911 85.9482 22.8055 85.4356 22.6344C84.9237 22.4554 84.4816 22.1793 84.1087 21.8058C83.7444 21.4246 83.461 20.9384 83.2592 20.3472C83.0574 19.7481 82.9569 19.0285 82.9569 18.1883V10.0314H86.0291V18.2116C86.0291 18.6318 86.0762 18.9819 86.1689 19.2619C86.2701 19.542 86.406 19.7714 86.5763 19.9504C86.7546 20.1215 86.9603 20.246 87.1935 20.3239C87.4337 20.3938 87.6897 20.4289 87.9613 20.4289C88.7064 20.4289 89.2921 20.281 89.7184 19.9854C90.1534 19.682 90.4635 19.2775 90.6496 18.7718C90.8356 18.2583 90.9291 17.6826 90.9291 17.0447Z" fill="black"/>
<path d="M4.57637 33.4628V34.2922H1.3634V33.4628H4.57637ZM1.65851 28.224V34.2922H0.615234V28.224H1.65851ZM4.15657 30.758V31.5749H1.3634V30.758H4.15657ZM4.55559 28.224V29.0576H1.3634V28.224H4.55559ZM7.1672 27.8906V34.2922H6.16133V27.8906H7.1672ZM10.0323 30.6996V34.2922H9.03065V29.7827H9.97413L10.0323 30.6996ZM9.87026 31.8707L9.52944 31.8666C9.52944 31.5554 9.56822 31.2679 9.64579 31.0039C9.72336 30.7399 9.83697 30.5107 9.98662 30.3163C10.1363 30.119 10.3219 29.9675 10.5436 29.8619C10.7681 29.7536 11.0271 29.6994 11.3209 29.6994C11.5259 29.6994 11.7129 29.73 11.882 29.7911C12.0538 29.8494 12.202 29.9426 12.3268 30.0703C12.4542 30.1982 12.5511 30.3621 12.6177 30.5621C12.687 30.7621 12.7216 31.0039 12.7216 31.2873V34.2922H11.7199V31.3748C11.7199 31.1553 11.6866 30.983 11.6201 30.858C11.5564 30.733 11.4636 30.6441 11.3417 30.5913C11.2225 30.5357 11.0798 30.5079 10.9135 30.5079C10.7251 30.5079 10.5644 30.5441 10.4314 30.6163C10.3011 30.6885 10.1944 30.7872 10.1113 30.9122C10.0282 31.0372 9.96722 31.1817 9.92844 31.3456C9.88965 31.5095 9.87026 31.6846 9.87026 31.8707ZM12.6593 31.604L12.1896 31.7082C12.1896 31.4359 12.227 31.1789 12.3018 30.9372C12.3794 30.6927 12.4916 30.4787 12.6385 30.2954C12.7881 30.1092 12.9724 29.9633 13.1913 29.8578C13.4102 29.7522 13.661 29.6994 13.9436 29.6994C14.1736 29.6994 14.3787 29.7313 14.5588 29.7953C14.7416 29.8564 14.8969 29.9537 15.0243 30.087C15.1518 30.2204 15.2488 30.394 15.3153 30.6079C15.3818 30.8191 15.415 31.0748 15.415 31.3748V34.2922H14.4091V31.3707C14.4091 31.1428 14.3759 30.9663 14.3094 30.8413C14.2457 30.7163 14.1542 30.6302 14.035 30.583C13.9159 30.533 13.7732 30.5079 13.6069 30.5079C13.4518 30.5079 13.3146 30.5371 13.1954 30.5955C13.0791 30.6511 12.9807 30.7302 12.9003 30.833C12.82 30.9331 12.759 31.0484 12.7174 31.1789C12.6786 31.3095 12.6593 31.4512 12.6593 31.604ZM19.1946 34.3755C18.8621 34.3755 18.5614 34.3214 18.2926 34.213C18.0266 34.1018 17.7994 33.9477 17.611 33.7504C17.4253 33.5531 17.2826 33.3211 17.1828 33.0544C17.0831 32.7876 17.0332 32.5 17.0332 32.1917V32.0249C17.0332 31.6721 17.0844 31.3526 17.187 31.0664C17.2895 30.7802 17.4323 30.5357 17.6151 30.3329C17.798 30.1273 18.0141 29.9703 18.2635 29.8619C18.5129 29.7536 18.7831 29.6994 19.074 29.6994C19.3955 29.6994 19.6768 29.7536 19.9178 29.8619C20.1589 29.9703 20.3584 30.1231 20.5164 30.3204C20.6771 30.5149 20.7962 30.7469 20.8738 31.0164C20.9542 31.2859 20.9944 31.5832 20.9944 31.9083V32.3376H17.5195V31.6165H20.0051V31.5373C19.9995 31.3567 19.9635 31.1872 19.897 31.0289C19.8333 30.8705 19.735 30.7427 19.602 30.6455C19.469 30.5482 19.2916 30.4996 19.0699 30.4996C18.9037 30.4996 18.7554 30.5357 18.6252 30.6079C18.4977 30.6774 18.391 30.7788 18.3051 30.9122C18.2192 31.0455 18.1527 31.2067 18.1056 31.3956C18.0612 31.5818 18.0391 31.7916 18.0391 32.0249V32.1917C18.0391 32.389 18.0654 32.5723 18.1181 32.7418C18.1735 32.9085 18.2538 33.0544 18.3591 33.1794C18.4645 33.3044 18.5919 33.4031 18.7415 33.4753C18.8912 33.5448 19.0616 33.5795 19.2528 33.5795C19.4938 33.5795 19.7086 33.5308 19.897 33.4336C20.0854 33.3364 20.249 33.1989 20.3875 33.021L20.9154 33.5337C20.8184 33.6754 20.6923 33.8115 20.5371 33.9421C20.382 34.0699 20.1921 34.1741 19.9677 34.2546C19.746 34.3352 19.4883 34.3755 19.1946 34.3755ZM23.5353 30.7455V34.2922H22.5336V29.7827H23.4771L23.5353 30.7455ZM23.3566 31.8707L23.0324 31.8666C23.0351 31.5471 23.0795 31.2539 23.1654 30.9872C23.254 30.7205 23.376 30.4913 23.5311 30.2996C23.6891 30.1079 23.8775 29.9606 24.0964 29.8578C24.3154 29.7522 24.5591 29.6994 24.828 29.6994C25.0441 29.6994 25.2395 29.73 25.414 29.7911C25.5913 29.8494 25.7424 29.9453 25.8671 30.0787C25.9946 30.212 26.0916 30.3857 26.1581 30.5997C26.2246 30.8108 26.2578 31.0706 26.2578 31.3789V34.2922H25.2519V31.3748C25.2519 31.1581 25.2201 30.9872 25.1563 30.8622C25.0954 30.7344 25.0053 30.6441 24.8862 30.5913C24.7698 30.5357 24.6243 30.5079 24.4497 30.5079C24.2779 30.5079 24.1241 30.5441 23.9884 30.6163C23.8525 30.6885 23.7376 30.7872 23.6434 30.9122C23.5519 31.0372 23.4812 31.1817 23.4314 31.3456C23.3815 31.5095 23.3566 31.6846 23.3566 31.8707ZM30.108 29.7827V30.5163H27.5726V29.7827H30.108ZM28.3041 28.6783H29.3058V33.0461C29.3058 33.1849 29.3252 33.2919 29.364 33.3669C29.4056 33.4392 29.4624 33.4878 29.5345 33.5128C29.6065 33.5378 29.691 33.5504 29.788 33.5504C29.8572 33.5504 29.9237 33.5462 29.9875 33.5378C30.0512 33.5295 30.1025 33.5212 30.1413 33.5128L30.1455 34.2797C30.0623 34.3047 29.9654 34.3269 29.8545 34.3463C29.7464 34.3658 29.6217 34.3755 29.4804 34.3755C29.2504 34.3755 29.0468 34.3352 28.8694 34.2546C28.692 34.1713 28.5535 34.0366 28.4538 33.8504C28.354 33.6643 28.3041 33.4169 28.3041 33.1086V28.6783ZM31.3563 32.0874V31.9916C31.3563 31.6665 31.4034 31.3651 31.4976 31.0873C31.5918 30.8066 31.7276 30.5635 31.905 30.3579C32.0851 30.1495 32.304 29.9884 32.5617 29.8745C32.8222 29.7578 33.1159 29.6994 33.4429 29.6994C33.7727 29.6994 34.0664 29.7578 34.324 29.8745C34.5845 29.9884 34.8048 30.1495 34.985 30.3579C35.1651 30.5635 35.3022 30.8066 35.3965 31.0873C35.4907 31.3651 35.5378 31.6665 35.5378 31.9916V32.0874C35.5378 32.4126 35.4907 32.714 35.3965 32.9918C35.3022 33.2697 35.1651 33.5128 34.985 33.7212C34.8048 33.9268 34.5859 34.088 34.3282 34.2046C34.0705 34.3185 33.7781 34.3755 33.4511 34.3755C33.1215 34.3755 32.8263 34.3185 32.5658 34.2046C32.3082 34.088 32.0893 33.9268 31.9092 33.7212C31.729 33.5128 31.5918 33.2697 31.4976 32.9918C31.4034 32.714 31.3563 32.4126 31.3563 32.0874ZM32.358 31.9916V32.0874C32.358 32.2903 32.3788 32.482 32.4204 32.6626C32.462 32.8432 32.5271 33.0016 32.6157 33.1377C32.7044 33.2739 32.818 33.3809 32.9566 33.4587C33.0951 33.5364 33.26 33.5753 33.4511 33.5753C33.6368 33.5753 33.7975 33.5364 33.9334 33.4587C34.0719 33.3809 34.1855 33.2739 34.2742 33.1377C34.3628 33.0016 34.4279 32.8432 34.4695 32.6626C34.5139 32.482 34.536 32.2903 34.536 32.0874V31.9916C34.536 31.7916 34.5139 31.6027 34.4695 31.4248C34.4279 31.2442 34.3614 31.0844 34.27 30.9456C34.1813 30.8066 34.0677 30.6983 33.9292 30.6204C33.7934 30.5399 33.6313 30.4996 33.4429 30.4996C33.2545 30.4996 33.0909 30.5399 32.9524 30.6204C32.8166 30.6983 32.7044 30.8066 32.6157 30.9456C32.5271 31.0844 32.462 31.2442 32.4204 31.4248C32.3788 31.6027 32.358 31.7916 32.358 31.9916ZM38.1493 30.6413V34.2922H37.1477V29.7827H38.1036L38.1493 30.6413ZM39.5252 29.7536L39.5169 30.6871C39.4559 30.676 39.3894 30.6677 39.3174 30.6622C39.248 30.6566 39.1788 30.6538 39.1095 30.6538C38.9377 30.6538 38.7867 30.6788 38.6564 30.7288C38.5262 30.7761 38.4167 30.8455 38.3281 30.9372C38.2422 31.0261 38.1757 31.1345 38.1286 31.2623C38.0815 31.3901 38.0538 31.5332 38.0455 31.6915L37.8168 31.7082C37.8168 31.4248 37.8445 31.1623 37.9 30.9205C37.9554 30.6788 38.0385 30.4662 38.1493 30.2829C38.2629 30.0995 38.4043 29.9564 38.5733 29.8536C38.7451 29.7508 38.9432 29.6994 39.1677 29.6994C39.2286 29.6994 39.2938 29.705 39.3631 29.7161C39.4351 29.7272 39.4891 29.7397 39.5252 29.7536ZM44.3286 28.224H45.2596L47.0095 32.9044L48.7553 28.224H49.6863L47.3752 34.2922H46.6354L44.3286 28.224ZM43.9046 28.224H44.7899L44.9437 32.275V34.2922H43.9046V28.224ZM49.2249 28.224H50.1144V34.2922H49.0711V32.275L49.2249 28.224ZM54.002 34.3755C53.6695 34.3755 53.3689 34.3214 53.1 34.213C52.834 34.1018 52.6068 33.9477 52.4184 33.7504C52.2327 33.5531 52.0901 33.3211 51.9903 33.0544C51.8906 32.7876 51.8406 32.5 51.8406 32.1917V32.0249C51.8406 31.6721 51.8919 31.3526 51.9944 31.0664C52.097 30.7802 52.2397 30.5357 52.4226 30.3329C52.6054 30.1273 52.8216 29.9703 53.071 29.8619C53.3204 29.7536 53.5905 29.6994 53.8815 29.6994C54.2029 29.6994 54.4842 29.7536 54.7253 29.8619C54.9664 29.9703 55.1659 30.1231 55.3238 30.3204C55.4845 30.5149 55.6036 30.7469 55.6812 31.0164C55.7616 31.2859 55.8018 31.5832 55.8018 31.9083V32.3376H52.3269V31.6165H54.8126V31.5373C54.807 31.3567 54.771 31.1872 54.7045 31.0289C54.6408 30.8705 54.5424 30.7427 54.4094 30.6455C54.2764 30.5482 54.099 30.4996 53.8773 30.4996C53.7111 30.4996 53.5628 30.5357 53.4326 30.6079C53.3051 30.6774 53.1984 30.7788 53.1125 30.9122C53.0266 31.0455 52.9601 31.2067 52.913 31.3956C52.8687 31.5818 52.8465 31.7916 52.8465 32.0249V32.1917C52.8465 32.389 52.8728 32.5723 52.9255 32.7418C52.9809 32.9085 53.0613 33.0544 53.1665 33.1794C53.2719 33.3044 53.3993 33.4031 53.549 33.4753C53.6986 33.5448 53.869 33.5795 54.0603 33.5795C54.3013 33.5795 54.516 33.5308 54.7045 33.4336C54.8929 33.3364 55.0564 33.1989 55.1949 33.021L55.7228 33.5337C55.6259 33.6754 55.4998 33.8115 55.3446 33.9421C55.1894 34.0699 54.9996 34.1741 54.7751 34.2546C54.5535 34.3352 54.2958 34.3755 54.002 34.3755ZM60.2298 29.7827H61.14V34.1672C61.14 34.5728 61.0541 34.9173 60.8824 35.2007C60.7106 35.4841 60.4709 35.6994 60.1633 35.8467C59.8557 35.9968 59.4997 36.0718 59.0951 36.0718C58.9232 36.0718 58.7321 36.0468 58.5215 35.9968C58.3137 35.9467 58.1113 35.8662 57.9147 35.755C57.7207 35.6467 57.5585 35.5036 57.4283 35.3257L57.898 34.734C58.0587 34.9257 58.2361 35.0659 58.43 35.1549C58.624 35.2438 58.8277 35.2883 59.041 35.2883C59.271 35.2883 59.4664 35.2452 59.6271 35.1591C59.7906 35.0757 59.9167 34.952 60.0054 34.7881C60.094 34.6242 60.1384 34.4241 60.1384 34.1879V30.8039L60.2298 29.7827ZM57.1748 32.0874V32C57.1748 31.6582 57.2164 31.3471 57.2994 31.0664C57.3826 30.783 57.5018 30.5399 57.6569 30.337C57.8121 30.1315 58.0006 29.9745 58.2222 29.8661C58.4439 29.755 58.6947 29.6994 58.9745 29.6994C59.2655 29.6994 59.5135 29.7522 59.7186 29.8578C59.9264 29.9633 60.0996 30.1148 60.2381 30.3121C60.3767 30.5065 60.4847 30.7399 60.5623 31.0122C60.6427 31.2817 60.7022 31.5818 60.741 31.9124V32.1917C60.705 32.514 60.6441 32.8085 60.5582 33.0752C60.4723 33.3419 60.3587 33.5726 60.2174 33.767C60.076 33.9615 59.9014 34.1116 59.6936 34.2172C59.4885 34.3227 59.2461 34.3755 58.9662 34.3755C58.6919 34.3755 58.4439 34.3185 58.2222 34.2046C58.0033 34.0907 57.8149 33.931 57.6569 33.7254C57.5018 33.5197 57.3826 33.2781 57.2994 33.0002C57.2164 32.7196 57.1748 32.4153 57.1748 32.0874ZM58.1765 32V32.0874C58.1765 32.2931 58.1959 32.4848 58.2347 32.6626C58.2762 32.8404 58.3386 32.9974 58.4217 33.1335C58.5076 33.267 58.6157 33.3725 58.746 33.4503C58.879 33.5253 59.0355 33.5628 59.2156 33.5628C59.4511 33.5628 59.6437 33.5128 59.7934 33.4128C59.9458 33.3128 60.0621 33.178 60.1425 33.0085C60.2256 32.8363 60.2839 32.6446 60.3171 32.4334V31.679C60.3004 31.5151 60.2658 31.3623 60.2132 31.2206C60.1633 31.0789 60.0954 30.9552 60.0095 30.8497C59.9236 30.7414 59.8155 30.658 59.6853 30.5997C59.555 30.5385 59.4013 30.5079 59.2239 30.5079C59.0438 30.5079 58.8873 30.5468 58.7543 30.6246C58.6212 30.7024 58.5118 30.8094 58.4259 30.9456C58.3427 31.0817 58.2804 31.2401 58.2388 31.4207C58.1972 31.6013 58.1765 31.7944 58.1765 32ZM65.4808 33.3878V31.2372C65.4808 31.0761 65.4517 30.9372 65.3935 30.8205C65.3353 30.7038 65.2466 30.6135 65.1274 30.5496C65.0111 30.4857 64.8642 30.4538 64.6869 30.4538C64.5234 30.4538 64.382 30.4816 64.2629 30.5371C64.1438 30.5926 64.051 30.6677 63.9845 30.7621C63.918 30.8566 63.8847 30.9636 63.8847 31.0831H62.8871C62.8871 30.9053 62.93 30.733 63.016 30.5663C63.1019 30.3995 63.2266 30.2509 63.39 30.1203C63.5536 29.9898 63.7489 29.887 63.9761 29.8119C64.2034 29.7369 64.4583 29.6994 64.7409 29.6994C65.079 29.6994 65.3782 29.7564 65.6387 29.8703C65.902 29.9842 66.1084 30.1564 66.258 30.3871C66.4104 30.6149 66.4866 30.9011 66.4866 31.2456V33.2503C66.4866 33.4559 66.5005 33.6407 66.5282 33.8046C66.5587 33.9657 66.6017 34.106 66.657 34.2255V34.2922H65.6304C65.5833 34.1838 65.5459 34.0462 65.5182 33.8796C65.4932 33.7101 65.4808 33.5462 65.4808 33.3878ZM65.6262 31.5498L65.6346 32.1708H64.9155C64.7299 32.1708 64.5663 32.1889 64.425 32.225C64.2837 32.2584 64.1659 32.3083 64.0717 32.375C63.9775 32.4417 63.9068 32.5223 63.8597 32.6168C63.8126 32.7113 63.789 32.8182 63.789 32.9377C63.789 33.0572 63.8168 33.1669 63.8722 33.267C63.9276 33.3642 64.008 33.4405 64.1133 33.4961C64.2213 33.5517 64.3516 33.5795 64.504 33.5795C64.7091 33.5795 64.8877 33.5378 65.0402 33.4545C65.1954 33.3684 65.3173 33.2641 65.4059 33.1419C65.4946 33.0169 65.5417 32.8988 65.5472 32.7876L65.8715 33.2336C65.8382 33.3475 65.7814 33.4698 65.701 33.6004C65.6207 33.731 65.5154 33.856 65.3852 33.9754C65.2577 34.0921 65.1039 34.1879 64.9238 34.263C64.7464 34.338 64.5414 34.3755 64.3086 34.3755C64.0149 34.3755 63.7531 34.3172 63.523 34.2005C63.2931 34.081 63.113 33.9212 62.9827 33.7212C62.8525 33.5184 62.7874 33.2892 62.7874 33.0335C62.7874 32.7946 62.8317 32.5834 62.9204 32.4001C63.0118 32.2139 63.1449 32.0583 63.3194 31.9333C63.4967 31.8082 63.7129 31.7138 63.9678 31.6499C64.2227 31.5832 64.5137 31.5498 64.8406 31.5498H65.6262ZM71.7098 28.224H72.6409L74.3908 32.9044L76.1365 28.224H77.0676L74.7566 34.2922H74.0167L71.7098 28.224ZM71.2859 28.224H72.1713L72.325 32.275V34.2922H71.2859V28.224ZM76.6062 28.224H77.4957V34.2922H76.4524V32.275L76.6062 28.224ZM81.3837 34.3755C81.0508 34.3755 80.7501 34.3214 80.4816 34.213C80.2154 34.1018 79.9885 33.9477 79.8001 33.7504C79.614 33.5531 79.4711 33.3211 79.3714 33.0544C79.2717 32.7876 79.2222 32.5 79.2222 32.1917V32.0249C79.2222 31.6721 79.2733 31.3526 79.3761 31.0664C79.4782 30.7802 79.6211 30.5357 79.804 30.3329C79.9869 30.1273 80.2028 29.9703 80.4525 29.8619C80.7014 29.7536 80.9715 29.6994 81.2628 29.6994C81.5839 29.6994 81.8657 29.7536 82.1068 29.8619C82.3478 29.9703 82.5472 30.1231 82.705 30.3204C82.866 30.5149 82.9853 30.7469 83.0623 31.0164C83.1431 31.2859 83.1832 31.5832 83.1832 31.9083V32.3376H79.7082V31.6165H82.1939V31.5373C82.1884 31.3567 82.1523 31.1872 82.0856 31.0289C82.022 30.8705 81.9238 30.7427 81.7904 30.6455C81.6577 30.5482 81.4802 30.4996 81.2588 30.4996C81.0924 30.4996 80.944 30.5357 80.8137 30.6079C80.6865 30.6774 80.5797 30.7788 80.4941 30.9122C80.4078 31.0455 80.3418 31.2067 80.2947 31.3956C80.2499 31.5818 80.228 31.7916 80.228 32.0249V32.1917C80.228 32.389 80.2539 32.5723 80.3065 32.7418C80.3622 32.9085 80.4423 33.0544 80.5475 33.1794C80.6535 33.3044 80.7807 33.4031 80.9307 33.4753C81.0798 33.5448 81.2502 33.5795 81.4418 33.5795C81.6828 33.5795 81.8971 33.5308 82.0856 33.4336C82.274 33.3364 82.4373 33.1989 82.5763 33.021L83.1039 33.5337C83.0073 33.6754 82.8809 33.8115 82.7262 33.9421C82.5708 34.0699 82.3808 34.1741 82.1562 34.2546C81.9348 34.3352 81.6773 34.3755 81.3837 34.3755ZM85.7238 30.7455V34.2922H84.722V29.7827H85.6657L85.7238 30.7455ZM85.5456 31.8707L85.2214 31.8666C85.2237 31.5471 85.2685 31.2539 85.354 30.9872C85.4428 30.7205 85.5645 30.4913 85.7199 30.2996C85.8777 30.1079 86.0662 29.9606 86.2852 29.8578C86.5042 29.7522 86.7476 29.6994 87.0169 29.6994C87.2328 29.6994 87.4283 29.73 87.6026 29.7911C87.7801 29.8494 87.9308 29.9453 88.0557 30.0787C88.1836 30.212 88.2802 30.3857 88.3469 30.5997C88.4137 30.8108 88.4466 31.0706 88.4466 31.3789V34.2922H87.4409V31.3748C87.4409 31.1581 87.4087 30.9872 87.3451 30.8622C87.2839 30.7344 87.1944 30.6441 87.075 30.5913C86.9588 30.5357 86.8128 30.5079 86.6385 30.5079C86.4666 30.5079 86.3127 30.5441 86.1768 30.6163C86.041 30.6885 85.9264 30.7872 85.8322 30.9122C85.7403 31.0372 85.6697 31.1817 85.6202 31.3456C85.57 31.5095 85.5456 31.6846 85.5456 31.8707ZM92.9407 33.2294V29.7827H93.9472V34.2922H92.9996L92.9407 33.2294ZM93.082 32.2917L93.4188 32.2834C93.4188 32.5862 93.3859 32.8655 93.3191 33.1211C93.2524 33.3739 93.1503 33.5948 93.0114 33.7837C92.8732 33.9699 92.6957 34.1158 92.4798 34.2213C92.2639 34.3241 92.0048 34.3755 91.7026 34.3755C91.4835 34.3755 91.2825 34.3436 91.0996 34.2797C90.9166 34.2157 90.7588 34.1171 90.6262 33.9837C90.4958 33.8504 90.3945 33.6767 90.3223 33.4628C90.2501 33.2489 90.2147 32.9932 90.2147 32.696V29.7827H91.2158V32.7043C91.2158 32.8682 91.2354 33.0058 91.2747 33.1169C91.3131 33.2252 91.3657 33.3128 91.4325 33.3795C91.4984 33.4461 91.5761 33.4934 91.6649 33.5212C91.7536 33.549 91.8478 33.5628 91.9475 33.5628C92.2333 33.5628 92.4578 33.5072 92.6211 33.3961C92.7876 33.2822 92.9054 33.1294 92.9745 32.9377C93.0467 32.746 93.082 32.5307 93.082 32.2917Z" fill="black"/>
</svg>
